<svg xmlns="http://www.w3.org/2000/svg" viewBox="0 0 500 500"><g id="freepik--background-simple--inject-2"><path d="M475.79,287.06c-13.49,40.9-42.56,85.73-85.35,100.32C325.8,409.43,320,462.45,202.71,462.09a236.91,236.91,0,0,1-50.94-5.47,195.55,195.55,0,0,1-24.12-7c-69.5-25.07-107.55-84.69-113-148.4-7.15-83.79,49.87-126.06,87-151s79.53-117.46,194.87-118a229.3,229.3,0,0,1,52.35,5.6c39.16,9,79.46,30.67,103.67,63.7,1.81,2.48,3.55,5,5.23,7.62C490.46,160,494.19,231.3,475.79,287.06Z" style="fill:#92E3A9"></path><path d="M475.79,287.06c-13.49,40.9-42.56,85.73-85.35,100.32C325.8,409.43,320,462.45,202.71,462.09a236.91,236.91,0,0,1-50.94-5.47,195.55,195.55,0,0,1-24.12-7c-69.5-25.07-107.55-84.69-113-148.4-7.15-83.79,49.87-126.06,87-151s79.53-117.46,194.87-118a229.3,229.3,0,0,1,52.35,5.6c39.16,9,79.46,30.67,103.67,63.7,1.81,2.48,3.55,5,5.23,7.62C490.46,160,494.19,231.3,475.79,287.06Z" style="fill:#fff;opacity:0.7000000000000001"></path></g><g id="freepik--Floor--inject-2"><path d="M480.32,460.49H34a.5.5,0,0,1-.5-.5.5.5,0,0,1,.5-.5H480.32a.5.5,0,0,1,.5.5A.51.51,0,0,1,480.32,460.49Z" style="fill:#263238"></path></g><g id="freepik--Window--inject-2"><path d="M31.29,267.91a.51.51,0,0,1-.5-.5V46.52a.5.5,0,0,1,.5-.5h136.2a.5.5,0,0,1,.5.5v84.94a.5.5,0,0,1-.5.5.5.5,0,0,1-.5-.5V47H31.79V267.41A.5.5,0,0,1,31.29,267.91Z" style="fill:#263238"></path><path d="M167.49,290.81H31.29a.51.51,0,0,1-.5-.5v-15a.5.5,0,0,1,.5-.5.5.5,0,0,1,.5.5v14.53H167V139.33a.5.5,0,0,1,.5-.5.51.51,0,0,1,.5.5v151A.51.51,0,0,1,167.49,290.81Z" style="fill:#263238"></path><path d="M314.29,290.81H178.09a.51.51,0,0,1-.5-.5V46.52a.5.5,0,0,1,.5-.5h136.2a.5.5,0,0,1,.5.5v17a.5.5,0,0,1-.5.5.5.5,0,0,1-.5-.5V47H178.59V289.81h135.2v-217a.5.5,0,0,1,.5-.5.51.51,0,0,1,.5.5V290.31A.51.51,0,0,1,314.29,290.81Z" style="fill:#263238"></path><path d="M461.08,290.81H324.89a.5.5,0,0,1-.5-.5V46.52a.5.5,0,0,1,.5-.5H461.08a.5.5,0,0,1,.5.5V152.21a.5.5,0,0,1-.5.5.5.5,0,0,1-.5-.5V47H325.39V289.81H460.58V161.51a.51.51,0,0,1,.5-.5.5.5,0,0,1,.5.5v128.8A.5.5,0,0,1,461.08,290.81Z" style="fill:#263238"></path><path d="M52.4,156a.54.54,0,0,1-.35-.14.51.51,0,0,1,0-.71L65.21,142a.5.5,0,0,1,.71.71L52.76,155.83A.54.54,0,0,1,52.4,156Z" style="fill:#263238"></path><path d="M70.21,138.16a.5.5,0,0,1-.35-.85L152.15,55a.5.5,0,0,1,.71.71L70.57,138A.5.5,0,0,1,70.21,138.16Z" style="fill:#263238"></path><path d="M46.28,174.36a.51.51,0,0,1-.36-.15.5.5,0,0,1,0-.7L75.2,144.22a.51.51,0,0,1,.71,0,.5.5,0,0,1,0,.71L46.63,174.21A.5.5,0,0,1,46.28,174.36Z" style="fill:#263238"></path><path d="M196.09,177.08a.5.5,0,0,1-.36-.14.51.51,0,0,1,0-.71L239,133a.48.48,0,0,1,.7,0,.5.5,0,0,1,0,.71l-43.24,43.24A.47.47,0,0,1,196.09,177.08Z" style="fill:#263238"></path><path d="M406.51,247.22a.54.54,0,0,1-.36-.14.51.51,0,0,1,0-.71l5.52-5.51a.49.49,0,0,1,.7.7l-5.51,5.52A.52.52,0,0,1,406.51,247.22Z" style="fill:#263238"></path><path d="M417.39,236.34a.54.54,0,0,1-.36-.14.51.51,0,0,1,0-.71l34.75-34.74a.5.5,0,0,1,.71,0,.5.5,0,0,1,0,.7L417.74,236.2A.54.54,0,0,1,417.39,236.34Z" style="fill:#263238"></path><path d="M438.85,204a.54.54,0,0,1-.35-.14.5.5,0,0,1,0-.71l11.24-11.24a.5.5,0,0,1,.7,0,.5.5,0,0,1,0,.71l-11.23,11.24A.54.54,0,0,1,438.85,204Z" style="fill:#263238"></path><path d="M374.16,86.86a.49.49,0,0,1-.35-.15.5.5,0,0,1,0-.71l29.62-29.62a.5.5,0,0,1,.71,0,.51.51,0,0,1,0,.71L374.51,86.71A.47.47,0,0,1,374.16,86.86Z" style="fill:#263238"></path><path d="M365.65,83.11a.47.47,0,0,1-.35-.15.48.48,0,0,1,0-.7L375.51,72a.5.5,0,0,1,.71.71L366,83A.47.47,0,0,1,365.65,83.11Z" style="fill:#263238"></path><path d="M461,310.55H85.48a.5.5,0,0,1-.5-.5.5.5,0,0,1,.5-.5H461a.5.5,0,0,1,.5.5A.5.5,0,0,1,461,310.55Z" style="fill:#263238"></path><path d="M77.61,310.55H32a.5.5,0,0,1-.5-.5.5.5,0,0,1,.5-.5H77.61a.51.51,0,0,1,.5.5A.5.5,0,0,1,77.61,310.55Z" style="fill:#263238"></path></g><g id="freepik--Plant--inject-2"><path d="M439.82,324.37h0a.11.11,0,0,0-.2-.08,137.79,137.79,0,0,0-7.19,22.54,210,210,0,0,0-4,23.37l-.56,5.91c-.08,1-.19,2-.26,3l-.16,3c-.09,2-.21,4-.27,5.93l.06,5.94.06,3c.05,1,.12,2,.19,3,.14,2,.27,3.95.45,5.91.37,3.94,1,7.85,1.57,11.75a.12.12,0,0,0,.11.09.1.1,0,0,0,.1-.11h0c0-2-.09-3.95-.14-5.92s-.22-3.92-.2-5.89,0-3.93-.06-5.89l-.06-2.95.06-2.94,0-5.88.16-5.88.06-2.94c0-1,.11-2,.17-2.94l.36-5.87a208.26,208.26,0,0,1,3.33-23.31A135.85,135.85,0,0,1,439.82,324.37Z" style="fill:#263238"></path><path d="M440.67,355.13a.11.11,0,0,0-.07-.13.1.1,0,0,0-.13.06,136.45,136.45,0,0,0-6.66,30.29c-.52,5.15-1.1,10.3-1.17,15.48a127.8,127.8,0,0,0,.55,15.52s0,.09.09.09a.1.1,0,0,0,.12-.09c.6-5.15,1-10.29,1.32-15.43s.41-10.29.75-15.43a152.92,152.92,0,0,1,5.2-30.36Z" style="fill:#263238"></path><path d="M457.72,366a.11.11,0,0,0-.15,0,52.67,52.67,0,0,0-11.4,9.94,47.32,47.32,0,0,0-4.46,6.2l-.91,1.73-.72,1.8a15,15,0,0,0-.62,1.82c-.19.61-.39,1.22-.56,1.84a73.36,73.36,0,0,0-2.36,15,86.17,86.17,0,0,0,.57,15.15.09.09,0,0,0,.09.09.1.1,0,0,0,.11-.1l1.3-15a134.65,134.65,0,0,1,1.9-14.79c.14-.6.31-1.19.47-1.79a15,15,0,0,1,.52-1.77l.61-1.73.78-1.64a44.86,44.86,0,0,1,4.09-6.2,51.38,51.38,0,0,1,10.71-10.42h0A.1.1,0,0,0,457.72,366Z" style="fill:#263238"></path><path d="M449.47,385.21a16.55,16.55,0,0,0-5.19,6.24,36.5,36.5,0,0,0-2.91,7.63c-.2.66-.36,1.32-.5,2l-.47,2a34.48,34.48,0,0,0-.51,4.05c0,1.36-.05,2.72,0,4.07a36.78,36.78,0,0,0,.53,4.05.12.12,0,0,0,.09.09.11.11,0,0,0,.12-.09,37.88,37.88,0,0,0,.72-4c.21-1.32.42-2.64.57-3.95s.37-2.61.47-3.93.28-2.63.56-3.91a35.58,35.58,0,0,1,2.23-7.57,16.83,16.83,0,0,1,4.35-6.5h0a.11.11,0,0,0,0-.14A.11.11,0,0,0,449.47,385.21Z" style="fill:#263238"></path><path d="M425.55,400.23c-.56-6.65-1.66-13.24-2.7-19.83s-2.19-13.16-3.39-19.71-2.55-13.09-4-19.6a.1.1,0,0,0-.12-.08.1.1,0,0,0-.08.12c1.14,6.56,2.17,13.14,3.14,19.73s1.94,13.17,2.78,19.77,1.44,13.23,2.27,19.82l2.44,19.82a.1.1,0,0,0,.1.09c.05,0,.1,0,.11-.1.07-1.67.07-3.34.11-5s-.06-3.34-.09-5C426.09,406.89,425.8,403.57,425.55,400.23Z" style="fill:#263238"></path><path d="M421.56,400.14c-.36-2.64-.84-5.26-1.35-7.87l-.93-3.89c-.31-1.3-.6-2.59-1-3.87a110.32,110.32,0,0,0-5.08-15.14l-.8-1.83-.89-1.8c-.56-1.2-1.25-2.35-1.89-3.52a30.13,30.13,0,0,0-4.81-6.37.12.12,0,0,0-.14,0,.11.11,0,0,0,0,.15h0a29.48,29.48,0,0,1,4.39,6.52c.58,1.18,1.19,2.34,1.69,3.57l.78,1.81.69,1.85a107.63,107.63,0,0,1,4.44,15.14c.6,2.56,1,5.17,1.5,7.76l.63,3.9c.22,1.3.5,2.58.68,3.89.42,2.6.9,5.2,1.35,7.8s.88,5.22,1.43,7.83a.11.11,0,0,0,.1.09.11.11,0,0,0,.11-.11q0-4-.19-8C422.15,405.43,421.83,402.79,421.56,400.14Z" style="fill:#263238"></path><path d="M416.05,400.48c-1.24-3.49-2.66-6.91-4.22-10.27a92.32,92.32,0,0,0-5.3-9.72.11.11,0,0,0-.14,0,.1.1,0,0,0,0,.14,90.26,90.26,0,0,1,4.53,10c1.35,3.4,2.57,6.86,3.59,10.37s1.79,7.08,2.72,10.6,1.77,7.07,2.85,10.64a.16.16,0,0,0,.1.08.11.11,0,0,0,.11-.11,52.71,52.71,0,0,0-1-11.07A69.06,69.06,0,0,0,416.05,400.48Z" style="fill:#263238"></path><path d="M415.82,412.11a24.06,24.06,0,0,0-2.93-6.14,25.4,25.4,0,0,0-4.27-5.3,19.1,19.1,0,0,0-2.71-2.05,11.12,11.12,0,0,0-3.08-1.39.1.1,0,0,0-.12.06.1.1,0,0,0,.05.13h0a15.33,15.33,0,0,1,5.1,4,24,24,0,0,1,3.56,5.38c1,1.91,1.53,4,2.41,6,.39,1,.77,2,1.22,3a25,25,0,0,0,1.34,3.08h0a.1.1,0,0,0,.09.06.1.1,0,0,0,.11-.1,25.7,25.7,0,0,0-.12-3.4C416.32,414.33,416.09,413.22,415.82,412.11Z" style="fill:#ababab"></path><path d="M416.23,350.62a18.94,18.94,0,0,1-13.42-14.27c-2.52-11.75,5.59-6.71-1.68-25.17s-5.6-22.66-3.08-28,3.92-3.63,6.15,3.36,10.35,17.9,13.43,38.32S416.23,350.62,416.23,350.62Z" style="fill:#92E3A9"></path><path d="M437.77,330.76s-7.27-2.52-7.55-16.23,5.31-10.91,6.15-28,2-29.09,5-29.37,11.19,8.39,14,27.41-3.63,31.61-9.23,37.21S437.77,330.76,437.77,330.76Z" style="fill:#92E3A9"></path><path d="M412.32,367.12s-1.68-10.07-5-14.82-10.63-9-15.38-18.19-10.07-13.7-9.79-.56,6.15,19.86,13.42,24.34S412.32,367.12,412.32,367.12Z" style="fill:#92E3A9"></path><path d="M409.24,384.46s-6.71-12.86-16.5-22.37-17.63-14.27-14.83-9.51,6.15,4.47,10.91,12.86,3.36,14.55,10.07,19.3S409.24,384.46,409.24,384.46Z" style="fill:#92E3A9"></path><path d="M408.4,401c-.28-.84-.56-7-10.07-12s-18.46-3.08-17.34-.56,7,6.71,12.86,9.23S408.4,401,408.4,401Z" style="fill:#92E3A9"></path><path d="M437.21,367.68s-4.2-5.31-2-16.5,7.28-8.4,12.87-14.27,4.48-6.71,10.07-12.87,10.63-9.51,12.87-7-1.12,10.35-4.48,14.83-8.67,6.71-11.19,12.3-1.4,14.55-7.83,18.74S437.21,367.68,437.21,367.68Z" style="fill:#92E3A9"></path><path d="M451.2,370.76s10.07-11.47,17.34-19.86,10.07-14.83,10.35-9.23,2.52,10.07-3.36,17.34S451.2,370.76,451.2,370.76Z" style="fill:#92E3A9"></path><path d="M445.88,389.22s-.28-4.48,15.67-14.83,22.65-12.3,21-8.11-8.68,8.39-16.23,16S445.88,389.22,445.88,389.22Z" style="fill:#92E3A9"></path><path d="M416.9,349.92a.49.49,0,0,1-.49-.4c0-.2-3.79-20.21-7.65-34.29s-6.41-22.85-6.44-22.93a.5.5,0,0,1,1-.28c0,.08,2.56,8.83,6.43,22.94s7.63,34.17,7.67,34.37a.51.51,0,0,1-.4.59Z" style="fill:#263238"></path><path d="M437.13,331.47l-.15,0a.51.51,0,0,1-.33-.63c.07-.22,6.81-21.87,9-34.83,2-11.73.18-20.75-1-26.73-.14-.67-.27-1.31-.38-1.91a.5.5,0,0,1,1-.18c.12.59.24,1.22.38,1.89,1.21,6.05,3.05,15.19,1,27.1-2.21,13-9,34.74-9,35A.49.49,0,0,1,437.13,331.47Z" style="fill:#263238"></path><path d="M411.43,367.2a.49.49,0,0,1-.43-.26,107.1,107.1,0,0,0-10.25-14.6c-1.58-1.86-3-3.47-4.44-5-4.05-4.47-7.24-8-9.35-13.29a.5.5,0,1,1,.92-.37c2.05,5.11,5.19,8.59,9.17,13,1.41,1.56,2.87,3.18,4.46,5.05a106.92,106.92,0,0,1,10.36,14.77.5.5,0,0,1-.19.68A.54.54,0,0,1,411.43,367.2Z" style="fill:#263238"></path><path d="M437.21,368.18h-.08a.49.49,0,0,1-.41-.57C436.81,367,439,354,444.36,347c2.07-2.72,4.91-6,7.91-9.46,4.75-5.48,9.66-11.14,12.2-15.39a.5.5,0,0,1,.69-.17.49.49,0,0,1,.17.68c-2.59,4.32-7.53,10-12.31,15.54-3,3.45-5.81,6.71-7.86,9.4-5.18,6.82-7.43,20.07-7.46,20.2A.49.49,0,0,1,437.21,368.18Z" style="fill:#263238"></path><path d="M407.74,401.16a.53.53,0,0,1-.27-.08c-.09-.06-9.47-6.15-16.08-9.46a.5.5,0,0,1,.45-.89c6.66,3.33,16.08,9.45,16.17,9.51a.49.49,0,0,1,.15.69A.48.48,0,0,1,407.74,401.16Z" style="fill:#263238"></path><path d="M435.12,460H422.8a5.41,5.41,0,0,1-5-3.32c-4-9.64-14.76-37.46-8.29-45.35,6.16-7.52,32.72-7.52,38.88,0,6.47,7.89-4.27,35.71-8.3,45.35A5.4,5.4,0,0,1,435.12,460Z" style="fill:#263238"></path></g><g id="freepik--Characters--inject-2"><rect x="235.3" y="269.47" width="40.64" height="51.68" style="fill:#263238"></rect><path d="M275.93,321.65H235.3a.5.5,0,0,1-.5-.5V269.47a.5.5,0,0,1,.5-.5h40.63a.5.5,0,0,1,.5.5v51.68A.5.5,0,0,1,275.93,321.65Zm-40.13-1h39.63V270H235.8Z" style="fill:#263238"></path><polygon points="306.53 206.39 302.04 220.19 309.42 222.43 306.53 206.39" style="fill:#92E3A9"></polygon><path d="M309.42,222.93a.39.39,0,0,1-.15,0l-7.38-2.24a.5.5,0,0,1-.3-.25.53.53,0,0,1,0-.39l4.49-13.79a.5.5,0,0,1,.51-.35.51.51,0,0,1,.46.41l2.89,16a.5.5,0,0,1-.16.46A.52.52,0,0,1,309.42,222.93Zm-6.75-3.07,6.11,1.86-2.39-13.28Z" style="fill:#263238"></path><path d="M310.26,295.5s-.74,41.64.73,53.35,19.79,53.11,21.25,59.09,6.11,20.2,6.11,20.2-2.69,5.48-2.2,8.22a31.7,31.7,0,0,1,.49,5s1.22,1-4.89,4.49-17.58,5.48-17.83,8.22,2.44,4.49,5.37,5,12.46-.75,14.17-1,17.59-3,20.52-3,4.89,1.25,5.87-5.23-2-19.7-2-19.7-1.22-20.19-5.62-36.15-13.19-49.12-12.7-50.86,1.71-46.62,1.71-46.62Z" style="fill:#92E3A9"></path><path d="M321.21,459.67a12.21,12.21,0,0,1-2-.13c-3.08-.52-6.06-2.43-5.79-5.52.17-1.91,4-3.22,8.85-4.88a57,57,0,0,0,9.24-3.74c4.4-2.51,4.71-3.59,4.73-3.75a.47.47,0,0,1-.1-.3,32.09,32.09,0,0,0-.48-4.9c-.47-2.61,1.68-7.34,2.15-8.35-.56-1.72-4.69-14.48-6.05-20-.51-2.06-3-8.39-6.26-16.4-5.93-14.8-14-35.06-15-42.74-1.45-11.62-.74-53-.73-53.43a.51.51,0,0,1,.15-.35.48.48,0,0,1,.36-.14l31,1a.5.5,0,0,1,.48.51c-.12,4.6-1.24,45-1.73,46.74-.31,1.81,7.18,30.55,12.71,50.6,4.36,15.82,5.62,36,5.63,36.25.11.46,2.93,13.3,1.95,19.8-.86,5.7-2.52,5.88-5.17,5.71-.37,0-.77-.05-1.19-.05-2.29,0-12.79,1.73-17.84,2.57l-2.6.42A119.23,119.23,0,0,1,321.21,459.67Zm15.93-18.48a1,1,0,0,1,.09.53c-.09,1.1-1.8,2.59-5.23,4.55a58.45,58.45,0,0,1-9.41,3.82c-3.78,1.29-8.06,2.75-8.17,4-.22,2.45,2.33,4,5,4.45s11.75-.67,14-1l2.59-.42c5.07-.84,15.63-2.58,18-2.58.44,0,.86,0,1.26.05,2.16.15,3.35.22,4.11-4.86.95-6.31-1.92-19.38-2-19.51,0-.28-1.28-20.41-5.61-36.13-.13-.48-13.37-48.74-12.7-51.13.34-1.27,1.19-28,1.68-46l-30-1c-.08,4.78-.62,41.92.74,52.77.94,7.56,9,27.75,14.94,42.5,3.23,8,5.78,14.41,6.3,16.53,1.44,5.9,6,20,6.09,20.16a.55.55,0,0,1,0,.38c0,.05-2.61,5.37-2.16,7.92A32,32,0,0,1,337.14,441.19Zm-.82.55Zm0,0Zm.82-.39h0Z" style="fill:#263238"></path><path d="M354,455.06c2.72,0,4.59,1.06,5.63-3.93a86.28,86.28,0,0,1-10.11-2.45c-4.93-1.76-12.86-7.33-12.86-7.33s1.22,1-4.89,4.49-17.58,5.48-17.83,8.22,2.44,4.49,5.37,5,12.46-.75,14.17-1S351.05,455.06,354,455.06Z" style="fill:#fff"></path><path d="M321.21,459.67a12.21,12.21,0,0,1-2-.13c-3.08-.52-6.06-2.43-5.79-5.52.17-1.91,4-3.22,8.85-4.88a57,57,0,0,0,9.24-3.74c4.4-2.51,4.71-3.58,4.73-3.75a.5.5,0,0,1,0-.6.5.5,0,0,1,.69-.11c.08.06,7.92,5.56,12.74,7.27a82.36,82.36,0,0,0,10,2.42.55.55,0,0,1,.32.22.51.51,0,0,1,.07.38c-1,4.63-2.8,4.52-4.94,4.38-.37,0-.76-.05-1.18-.05-2.29,0-12.79,1.73-17.84,2.57l-2.6.42A119.23,119.23,0,0,1,321.21,459.67Zm15.87-17.41c-.51,1-2.18,2.35-5.08,4a58.45,58.45,0,0,1-9.41,3.82c-3.78,1.29-8.06,2.75-8.17,4-.22,2.45,2.33,4,5,4.45s11.75-.67,14-1l2.59-.42c5.07-.84,15.63-2.58,18-2.58.44,0,.85,0,1.25.05,1.91.13,3,.2,3.78-3.09a82.88,82.88,0,0,1-9.68-2.36C345.21,447.68,339.16,443.68,337.08,442.26Zm-.76-.52Zm0,0Z" style="fill:#263238"></path><path d="M329.31,297s.73,43.63,3.42,55.84,5.13,48.37,5.37,53.36.25,21.19.25,21.94-1,16.2-1,16.2-6.35,4.49-9,6.48-10.74,3.24-11,5.24,4.4,6.48,8.55,7.23,27.6-3,30.29-3a32.06,32.06,0,0,0,8.06-1c1.22-.5,1.47-3.24,1.47-6.48s-.49-6.24,0-9,2.44-29.17,1.22-42.38-4.64-26.43-4.4-40.89,2.93-28.42,3.91-36.9,4.4-29.17,4.4-29.17Z" style="fill:#92E3A9"></path><path d="M327.46,463.88a10.32,10.32,0,0,1-1.66-.1c-4.4-.79-9.24-5.45-9-7.78.17-1.38,2.36-2.18,5.92-3.37a22.51,22.51,0,0,0,5.28-2.21c2.39-1.78,7.76-5.58,8.85-6.35.34-5.4,1-15.36,1-15.93,0-1.74,0-17.09-.24-21.92-.31-6.3-2.79-41.55-5.37-53.27-2.66-12.12-3.42-55.51-3.43-55.95a.5.5,0,0,1,.47-.5l41.53-2.5a.47.47,0,0,1,.4.17.47.47,0,0,1,.12.41c0,.21-3.43,20.78-4.39,29.15-.26,2.27-.64,4.88-1.08,7.9A229.53,229.53,0,0,0,363,360.58c-.15,9.17,1.18,17.9,2.47,26.35.73,4.75,1.48,9.67,1.93,14.48,1.21,13.15-.7,39.56-1.23,42.52a25.46,25.46,0,0,0-.11,5.62c.06,1.05.12,2.14.12,3.27,0,3.73-.3,6.34-1.78,6.94a32.34,32.34,0,0,1-8.25,1c-.89,0-4.37.45-8.41,1C340.83,462.69,331.68,463.88,327.46,463.88Zm2.36-166.41c.09,4.79.9,43.92,3.4,55.27,2.79,12.66,5.2,49.64,5.38,53.43.24,4.86.25,20.23.25,22,0,.75-.94,15.6-1,16.23a.52.52,0,0,1-.21.38c-.06,0-6.38,4.51-9,6.47a22.35,22.35,0,0,1-5.55,2.36c-2.17.72-5.14,1.72-5.24,2.54-.21,1.68,4.19,6,8.14,6.68,2.65.48,14.09-1,21.66-2,4.24-.56,7.59-1,8.54-1a32,32,0,0,0,7.87-1c1.16-.47,1.16-4.65,1.16-6,0-1.1-.06-2.18-.11-3.22a25.23,25.23,0,0,1,.12-5.85c.52-2.94,2.42-29.18,1.21-42.25-.44-4.78-1.16-9.46-1.91-14.42-1.3-8.49-2.64-17.27-2.49-26.52.18-10.62,1.66-20.85,2.85-29.08.43-3,.8-5.6,1.06-7.86.88-7.57,3.73-25.07,4.3-28.58Zm7.55,146.87h0Z" style="fill:#263238"></path><polygon points="312.5 300.32 328.56 304.15 355.34 299.23 312.5 300.32" style="fill:#263238"></polygon><path d="M328.56,304.65h-.11l-16.07-3.83a.5.5,0,0,1-.38-.54.49.49,0,0,1,.49-.44l42.83-1.1a.5.5,0,0,1,.51.45.49.49,0,0,1-.4.54l-26.78,4.92Zm-12.22-3.92,12.24,2.91L349,299.89Z" style="fill:#263238"></path><path d="M361.26,392.36a.49.49,0,0,1-.41-.21,42.24,42.24,0,0,1-2.41-4,.49.49,0,0,1,.2-.68.49.49,0,0,1,.67.2,44.74,44.74,0,0,0,2.36,3.92.49.49,0,0,1-.12.69A.52.52,0,0,1,361.26,392.36Z" style="fill:#263238"></path><path d="M356.46,383.6a.5.5,0,0,1-.45-.28c-7.93-16.85-17-45.58-17.11-45.86a.5.5,0,0,1,.33-.63.49.49,0,0,1,.62.33c.1.28,9.16,28.95,17.07,45.73a.5.5,0,0,1-.24.67A.54.54,0,0,1,356.46,383.6Z" style="fill:#263238"></path><path d="M337.37,444.34s-6.35,4.49-9,6.48-10.74,3.24-11,5.24,4.4,6.48,8.55,7.23,27.6-3,30.29-3a32.06,32.06,0,0,0,8.06-1c1.22-.5,1.47-3.24,1.47-6.48,0,0-12.3-.83-18.83-2.78S337.37,444.34,337.37,444.34Z" style="fill:#fff"></path><path d="M327.46,463.88a10.32,10.32,0,0,1-1.66-.1c-4.4-.79-9.24-5.45-9-7.78.17-1.38,2.36-2.18,5.92-3.37a22.51,22.51,0,0,0,5.28-2.21c2.66-2,9-6.44,9-6.49a.5.5,0,0,1,.68.1,19.56,19.56,0,0,0,9.26,5.53c6.41,1.91,18.6,2.75,18.72,2.76a.5.5,0,0,1,.47.5c0,3.73-.3,6.34-1.78,6.94a32.34,32.34,0,0,1-8.25,1c-.89,0-4.37.45-8.41,1C340.83,462.69,331.68,463.88,327.46,463.88ZM337.29,445c-1.39,1-6.38,4.52-8.66,6.21a22.35,22.35,0,0,1-5.55,2.36c-2.17.72-5.14,1.72-5.24,2.54-.21,1.68,4.19,6,8.14,6.68,2.65.48,14.09-1,21.66-2,4.24-.56,7.59-1,8.54-1a32,32,0,0,0,7.87-1c1.05-.43,1.15-3.88,1.16-5.56-2.34-.17-12.6-1-18.47-2.76A21.14,21.14,0,0,1,337.29,445Z" style="fill:#263238"></path><path d="M333.43,460.5a37.64,37.64,0,0,1-14.66-1.56,13.82,13.82,0,0,0,7.12,4.35c4.15.75,27.6-3,30.29-3a32.06,32.06,0,0,0,8.06-1c.85-.35,1.22-1.79,1.37-3.73C356.71,457.12,340.8,459.8,333.43,460.5Z" style="fill:#fff"></path><path d="M327.46,463.88a10.32,10.32,0,0,1-1.66-.1,14.32,14.32,0,0,1-7.41-4.52.51.51,0,0,1,0-.6.49.49,0,0,1,.57-.2A37.13,37.13,0,0,0,333.38,460c7.37-.7,23.3-3.38,32.15-4.92a.48.48,0,0,1,.42.12.47.47,0,0,1,.16.41c-.19,2.48-.71,3.76-1.68,4.15a32.34,32.34,0,0,1-8.25,1c-.89,0-4.37.45-8.41,1C340.83,462.69,331.68,463.88,327.46,463.88ZM320.51,460A12.38,12.38,0,0,0,326,462.8c2.65.48,14.09-1,21.66-2,4.24-.56,7.59-1,8.54-1a32,32,0,0,0,7.87-1c.35-.14.79-.73,1-2.66-9,1.55-24.36,4.13-31.58,4.82h0A38,38,0,0,1,320.51,460Zm12.92.55h0Z" style="fill:#263238"></path><polygon points="253.62 262.74 230.24 262.74 230.24 267.54 230.34 267.54 230.34 374.43 136.9 374.43 136.9 377.02 230.34 377.02 230.34 398.88 233.57 398.88 233.57 377.02 233.57 374.43 233.57 267.54 253.62 267.54 253.62 262.74" style="fill:#cfcfcf"></polygon><rect x="237.73" y="261.43" width="20.39" height="7.61" style="fill:#263238"></rect><path d="M258.12,269.54H237.73a.51.51,0,0,1-.5-.5v-7.61a.5.5,0,0,1,.5-.5h20.39a.5.5,0,0,1,.5.5V269A.5.5,0,0,1,258.12,269.54Zm-19.89-1h19.39v-6.61H238.23Z" style="fill:#263238"></path><path d="M221.48,340.28c-29.52,0-53.45,26.84-53.45,60s23.93,60,53.45,60,53.45-26.85,53.45-60S251,340.28,221.48,340.28Zm0,113.54c-26.38,0-47.76-24-47.76-53.58s21.38-53.58,47.76-53.58,47.76,24,47.76,53.58S247.86,453.82,221.48,453.82Z" style="fill:#cfcfcf"></path><path d="M268.45,423.34h-5.84a51.4,51.4,0,0,0,5.39-23.1c0-26.05-18.82-47.17-42-47.17a39.18,39.18,0,0,0-26.41,10.47H182.74v2.09H197.4a49.83,49.83,0,0,0-13.49,34.61c0,15.68,6.82,29.56,17.31,38.13H185.3v2.09h18.23v-.33A38.54,38.54,0,0,0,226,447.41c15,0,28.09-8.77,35.54-22h6.95Zm-3.38-23.1a46.92,46.92,0,0,1-9.53,28.69l-16.38-24.56a11.49,11.49,0,0,0,.83-4.31,10.79,10.79,0,0,0-4.19-8.74l4.89-31.73C255,366.12,265.07,381.85,265.07,400.24ZM226,356.36a35.19,35.19,0,0,1,10.23,1.53c-.69,3.07-4.77,21.54-7.13,32-3.94.93-6.93,4.78-7.2,9.47-9.76,3.48-29.44,9.72-33.93,11.14a49.41,49.41,0,0,1-1.09-10.27C186.84,376,204.35,356.36,226,356.36Zm-36.32,60.17,35.06-8.92a8.47,8.47,0,0,0,6.21,2.82,7.94,7.94,0,0,0,3.07-.62l17.69,23.49A36.66,36.66,0,0,1,226,444.12C209.49,444.12,195.41,432.7,189.64,416.53Z" style="fill:#cfcfcf"></path><path d="M306.19,219.67l-4.61,12.4s-38.26,18.77-41.8,20.9S241,260.05,241,260.05s-2.48,11-1.06,11.69a12.45,12.45,0,0,0,4.25.71l3.54-2.83s5.32.71,6.38.35,4-8.54,4-8.54l51.61-12.71,1.77-33.66Z" style="fill:#fff"></path><path d="M244.19,273a12.78,12.78,0,0,1-4.47-.76c-1.54-.77-.16-8,.8-12.25a.47.47,0,0,1,.33-.36c.15-.05,15.22-5,18.67-7s38.49-19.28,41.66-20.83l4.54-12.22a.48.48,0,0,1,.14-.2l5.31-4.61a.5.5,0,0,1,.83.41l-1.77,33.65a.5.5,0,0,1-.38.46L258.5,261.85c-1.15,3.17-3.13,8.23-4.23,8.6s-5.13-.15-6.39-.31l-3.38,2.7A.47.47,0,0,1,244.19,273Zm-2.76-12.51c-1.06,4.79-1.83,10.23-1.24,10.88A11.41,11.41,0,0,0,244,272l3.4-2.72a.49.49,0,0,1,.38-.11c2,.27,5.46.61,6.15.38s2.38-4.56,3.7-8.24a.51.51,0,0,1,.35-.32l51.25-12.62,1.69-32.11L306.61,220l-4.56,12.28a.44.44,0,0,1-.25.27c-.38.19-38.28,18.8-41.76,20.89S243.56,259.74,241.43,260.44Zm60.15-28.37h0Z" style="fill:#263238"></path><path d="M82.48,441.5l-3.43-2.05,35.39-60a9.21,9.21,0,0,1,7.87-4.46h16v4h-16a5.17,5.17,0,0,0-4.43,2.51Z" style="fill:#fff"></path><path d="M82.48,442a.59.59,0,0,1-.25-.07l-3.44-2.05a.51.51,0,0,1-.17-.69l35.39-60a9.7,9.7,0,0,1,8.3-4.71h16a.5.5,0,0,1,.5.5v4a.5.5,0,0,1-.5.5h-16a4.69,4.69,0,0,0-4,2.27l-35.38,60a.48.48,0,0,1-.31.23Zm-2.75-2.73,2.58,1.54,35.13-59.53a5.68,5.68,0,0,1,4.87-2.76h15.51v-3H122.31a8.68,8.68,0,0,0-7.44,4.22Z" style="fill:#263238"></path><path d="M138.66,365.49h92.57V329.94S171.77,325,139,352.31Z" style="fill:#263238"></path><path d="M231.23,366H138.66a.47.47,0,0,1-.35-.15.48.48,0,0,1-.15-.36l.31-13.18a.49.49,0,0,1,.18-.37c32.58-27.1,92-22.54,92.62-22.49a.5.5,0,0,1,.46.5v35.55A.5.5,0,0,1,231.23,366Zm-92-1h91.55V330.4c-5.59-.37-60.48-3.27-91.26,22.15Z" style="fill:#263238"></path><path d="M234.68,312.57H213.9a.5.5,0,0,1-.5-.5v-3a.5.5,0,0,1,.5-.5h20.78a.5.5,0,0,1,.5.5v3A.5.5,0,0,1,234.68,312.57Zm-20.28-1h19.78v-2H214.4Z" style="fill:#263238"></path><path d="M213.9,314.07H149.73a3.5,3.5,0,1,1,0-7H213.9a3.5,3.5,0,1,1,0,7Z" style="fill:#263238"></path><path d="M140,413.79h-3V313.92a4.85,4.85,0,0,1,4.85-4.85h7.84v3h-7.84a1.85,1.85,0,0,0-1.85,1.85Z" style="fill:#fff"></path><path d="M140,414.29h-3a.5.5,0,0,1-.5-.5V313.92a5.36,5.36,0,0,1,5.35-5.35h7.84a.5.5,0,0,1,.5.5v3a.5.5,0,0,1-.5.5h-7.84a1.35,1.35,0,0,0-1.35,1.35v99.87A.5.5,0,0,1,140,414.29Zm-2.5-1h2V313.92a2.35,2.35,0,0,1,2.35-2.35h7.34v-2h-7.34a4.35,4.35,0,0,0-4.35,4.35Z" style="fill:#263238"></path><path d="M136,412.87v21.7s-1.55,5.09-1.37,7.08c.32,3.56,7.76-7.08,7.76-7.08v-21.7Z" style="fill:#263238"></path><path d="M135.14,442.87a.76.76,0,0,1-.21,0c-.31-.08-.7-.35-.77-1.15-.17-1.95,1.17-6.54,1.37-7.19V412.88a.5.5,0,0,1,.5-.5h6.39a.5.5,0,0,1,.5.5v21.69a.52.52,0,0,1-.09.29C141.11,437.32,137,442.87,135.14,442.87Zm1.39-29.49v21.19a.59.59,0,0,1,0,.14c0,.05-1.52,5-1.35,6.89a.61.61,0,0,0,.07.3c.7.05,3.77-3.33,6.69-7.49v-21Zm-.5,21.19h0Z" style="fill:#263238"></path><path d="M136.8,416.93a21.35,21.35,0,1,0,21.35,21.35A21.35,21.35,0,0,0,136.8,416.93Zm14.64,19.71c-4.17-.76-14.56-3.47-20.15-12a14.71,14.71,0,0,1,20.15,12Zm-25-8.82c1.24,2,4.46,8.06,3.21,14.3-.82,4.11-2.35,5.66-3.59,6.21a14.7,14.7,0,0,1,.38-20.51ZM136.8,453a14.47,14.47,0,0,1-4.13-.6c2.27-3.84,7.48-9.69,17.9-8.9A14.74,14.74,0,0,1,136.8,453Z" style="fill:#263238"></path><path d="M136.8,460.12a21.85,21.85,0,1,1,21.85-21.84A21.87,21.87,0,0,1,136.8,460.12Zm0-42.69a20.85,20.85,0,1,0,20.85,20.85A20.87,20.87,0,0,0,136.8,417.43Zm0,36.08a15.26,15.26,0,0,1-4.27-.62.5.5,0,0,1-.33-.29.52.52,0,0,1,0-.44c2.22-3.77,7.56-10,18.36-9.15a.49.49,0,0,1,.43.67A15.3,15.3,0,0,1,136.8,453.51Zm-3.35-1.41a14.15,14.15,0,0,0,3.35.41,14.32,14.32,0,0,0,13-8.55C140.55,443.51,135.68,448.6,133.45,452.1Zm-7.4-3.27a.46.46,0,0,1-.36-.16,15.2,15.2,0,0,1,.38-21.2.51.51,0,0,1,.42-.15.5.5,0,0,1,.36.24c1.41,2.3,4.55,8.33,3.28,14.66-.7,3.52-2,5.73-3.87,6.57A.52.52,0,0,1,126.05,448.83Zm.28-20.19a14.21,14.21,0,0,0-.17,19.07c1-.61,2.27-2.1,3-5.69C130.26,436.49,127.78,431.15,126.33,428.64Zm25.11,8.5h-.09c-4.26-.78-14.79-3.53-20.48-12.24a.52.52,0,0,1-.06-.42.5.5,0,0,1,.29-.31,15.15,15.15,0,0,1,5.7-1.12h0a15.21,15.21,0,0,1,15.14,13.54.47.47,0,0,1-.16.42A.48.48,0,0,1,151.44,437.14Zm-19.38-12.28c5.26,7.56,14.41,10.26,18.79,11.15a14.21,14.21,0,0,0-18.79-11.15Z" style="fill:#263238"></path><path d="M215.47,240.76s-12,.79-19.15,7.78-37.89,56-37.89,56l30.32,1.79-5.59,24.53,66,11s2.19,4,5.58-15.75,10.77-48.47,10.77-58-3.79-20.14-8.38-23.93-18.94-6.58-18.94-6.58Z" style="fill:#fff"></path><path d="M249.69,342.7a1.06,1.06,0,0,1-.79-.37L183.08,331.4a.52.52,0,0,1-.41-.61l5.46-24-29.73-1.76a.51.51,0,0,1-.41-.27.5.5,0,0,1,0-.5c1.25-2,30.83-49.19,38-56.13s18.72-7.87,19.44-7.92l22.72-3.19a.29.29,0,0,1,.16,0c.59.11,14.54,2.86,19.17,6.68,4.8,4,8.56,14.65,8.56,24.32,0,5.93-2.78,19-5.72,32.88-1.85,8.66-3.75,17.63-5.06,25.24-2.75,16.05-4.73,16.38-5.38,16.49Zm-.08-1.07a.53.53,0,0,0,.1.07c.2,0,2-.8,4.56-15.67,1.31-7.63,3.21-16.6,5.06-25.28,2.93-13.81,5.7-26.84,5.7-32.67,0-9.25-3.68-19.81-8.19-23.55-4.27-3.52-17.48-6.22-18.65-6.46l-22.65,3.18h0c-.11,0-11.87.87-18.83,7.63-6.58,6.4-33.54,49.16-37.37,55.24l29.48,1.74a.51.51,0,0,1,.37.2.5.5,0,0,1,.08.41l-5.46,24,65.49,10.88a.51.51,0,0,1,.35.25ZM215.47,240.76h0Z" style="fill:#263238"></path><path d="M197.19,269.85h-.12a.5.5,0,0,1-.36-.61l1.56-6.06a.5.5,0,1,1,1,.25l-1.56,6.06A.51.51,0,0,1,197.19,269.85Z" style="fill:#263238"></path><path d="M189.85,298.28l-.12,0a.5.5,0,0,1-.36-.61l6.15-23.84a.5.5,0,1,1,1,.25l-6.16,23.84A.49.49,0,0,1,189.85,298.28Z" style="fill:#263238"></path><path d="M183.85,295.19s-7.25-3.35-13.18-3.35-10,4.11-13,8.91,5.48,7.76,9.59,8,7-.15,12.47-.15,9.9,11.35,9.9,11.35a23.83,23.83,0,0,0,3.2,8c2.28,3.2,1.37,4.34,2.74,4.8s4.11-.69,4.34-2.74,2.59-5.89.46-12.56C194.09,297.87,183.85,295.19,183.85,295.19Z" style="fill:#fff"></path><path d="M196.23,333.33a2.55,2.55,0,0,1-.84-.13c-.92-.3-1.1-.9-1.34-1.66a10,10,0,0,0-1.65-3.32,24,24,0,0,1-3.28-8.19s-4.34-10.94-9.41-10.94c-2.29,0-4.15.07-5.79.13-2.31.08-4.3.15-6.71,0-3.33-.19-8.75-2-10.26-4.86a3.78,3.78,0,0,1,.28-3.9c3.8-6.15,8.2-9.14,13.44-9.14,5.82,0,12.71,3.08,13.35,3.38.85.24,10.68,3.41,16.8,22.56a17.07,17.07,0,0,1,0,11.12,11.2,11.2,0,0,0-.4,1.64,3.49,3.49,0,0,1-1.72,2.53A4.68,4.68,0,0,1,196.23,333.33Zm-16.52-25.24c5.75,0,10.18,11.19,10.37,11.67a23.78,23.78,0,0,0,3.14,7.88,11.29,11.29,0,0,1,1.79,3.6c.22.72.28.88.7,1a3.16,3.16,0,0,0,2.42-.52,2.57,2.57,0,0,0,1.26-1.8,12.39,12.39,0,0,1,.44-1.82,16.24,16.24,0,0,0,0-10.53c-6.1-19.08-16.05-21.88-16.15-21.91l-.08,0c-.07,0-7.22-3.3-13-3.3-4.86,0-9,2.84-12.59,8.67a2.77,2.77,0,0,0-.24,2.91c1.31,2.52,6.41,4.15,9.43,4.32,2.36.13,4.33.06,6.61,0C175.53,308.16,177.4,308.09,179.71,308.09Z" style="fill:#263238"></path><path d="M196.14,331.33a.51.51,0,0,1-.48-.35l-3.2-10a.5.5,0,1,1,1-.3l3.2,10a.51.51,0,0,1-.33.63Z" style="fill:#263238"></path><path d="M198.49,331.54h0A.5.5,0,0,1,198,331c.2-4.1-2.7-10.59-2.73-10.66a.5.5,0,0,1,.25-.66.5.5,0,0,1,.66.25c.12.28,3,6.78,2.82,11.12A.51.51,0,0,1,198.49,331.54Z" style="fill:#263238"></path><path d="M200.39,327.75a.5.5,0,0,1-.5-.5,17.58,17.58,0,0,0-1.63-7.92.5.5,0,0,1,.88-.48,18.39,18.39,0,0,1,1.75,8.4A.5.5,0,0,1,200.39,327.75Z" style="fill:#263238"></path><path d="M217.47,235.77s-5.19,3.39-7.38,8-3.39,8.37-1.8,8.77,11-3.19,11-3.19,5.19-1.39,6.58-.79,5.79,6,9.58,7.37,8.77-8.57,10.17-15.55-5.19-8.18-5.19-8.18S221.45,233,217.47,235.77Z" style="fill:#fff"></path><path d="M236.16,256.55a2.63,2.63,0,0,1-.92-.17c-2.5-.92-5.21-3.47-7.19-5.34a16.13,16.13,0,0,0-2.4-2c-.91-.38-4.32.3-6.26.83-1.54.59-9.55,3.6-11.22,3.19a1.34,1.34,0,0,1-.91-.76c-.22-.47-.89-1.89,2.37-8.72,2.21-4.62,7.26-8,7.56-8.17,4.07-2.84,22.41-3.65,23.19-3.68h.11a7.81,7.81,0,0,1,4.69,3,7.35,7.35,0,0,1,.9,5.75c-1.2,6-4.8,13.67-8.25,15.61A3.47,3.47,0,0,1,236.16,256.55Zm-11.39-8.66a3.24,3.24,0,0,1,1.27.19,13.33,13.33,0,0,1,2.69,2.23c1.92,1.81,4.55,4.28,6.86,5.14a2,2,0,0,0,1.75-.26c3.16-1.77,6.63-9.29,7.76-14.93a6.44,6.44,0,0,0-.74-5,6.91,6.91,0,0,0-4-2.59c-1.19.06-18.89.9-22.61,3.5h0c-.05,0-5.1,3.37-7.2,7.77-2.77,5.78-2.58,7.43-2.38,7.86a.34.34,0,0,0,.25.22c1.05.26,7.1-1.81,10.67-3.17A26.54,26.54,0,0,1,224.77,247.89Zm-7.3-12.12h0Z" style="fill:#263238"></path><path d="M243.79,183.12s-6.78-4.59-19.54-2.59S205.7,191.3,205.3,195.68s-.8,6.59-1,13.57.2,15.95,2.79,19.14,6.79,6.18,8,7.78,3.19,11.77,4.19,13.16,3.59,2.6,5,.2c2.2-3.77,6-6.55,9.48-9,.82-.57,9-5.2,8.47-6.35,0,0-1-2.4,0-7.78s2-6,2-6,8.58-.2,8.58-8-2.2-8.58-2.2-8.58S252.37,189.5,243.79,183.12Z" style="fill:#fff"></path><path d="M222.09,251.4a4.29,4.29,0,0,1-3.24-1.78c-.49-.68-1.07-2.8-2-6.21-.73-2.75-1.64-6.18-2.21-6.94a24.58,24.58,0,0,0-2.82-2.71,45.19,45.19,0,0,1-5.14-5c-2.91-3.58-3.07-13.74-2.91-19.48.15-5.28.42-7.89.71-10.65.1-.92.19-1.86.29-2.94.47-5.15,6.95-13.67,19.37-15.61,12.81-2,19.62,2.48,19.9,2.68h0c8.1,6,7.23,18.67,7,20.89.71.57,2.17,2.5,2.17,8.83,0,7.49-7.55,8.37-8.87,8.46-.2.26-.94,1.43-1.71,5.59-.95,5.13,0,7.47,0,7.5.37.88-.71,2.1-7.6,6.3l-1.05.65c-3.55,2.48-7.2,5.2-9.33,8.84a2.94,2.94,0,0,1-2.45,1.62Zm8.37-70.87a39.56,39.56,0,0,0-6.14.49c-13,2-18.18,10.95-18.52,14.71-.1,1.08-.2,2-.29,3-.3,2.87-.56,5.34-.71,10.58-.27,9.53.71,16.39,2.68,18.82a45.74,45.74,0,0,0,5,4.93,24.43,24.43,0,0,1,3,2.86c.64.85,1.36,3.44,2.38,7.29a35,35,0,0,0,1.82,5.88,3.24,3.24,0,0,0,2.51,1.36,2,2,0,0,0,1.63-1.12c2.24-3.82,6-6.62,9.63-9.16l1.1-.68c4.53-2.76,6.94-4.49,7.17-5.14-.16-.45-.94-3,0-8,1-5.21,2-6.16,2.23-6.32a.57.57,0,0,1,.25-.08c.33,0,8.09-.28,8.09-7.47s-1.87-8.11-1.89-8.12a.53.53,0,0,1-.3-.52c0-.14,1.65-14.14-6.58-20.27C243.29,183.39,238.76,180.53,230.46,180.53Z" style="fill:#263238"></path><path d="M244.19,185.91s-7,3.59-7.18,7.18,4.19,6.38,4.59,7.18-1.2,5.39.4,6.18a2.45,2.45,0,0,0,3.39-1.59c.07-2.28,4.59-2.65,5.18-1,0,0,2.2-.2,1.6-8.38S248,182.92,244.19,185.91Z" style="fill:#263238"></path><path d="M243,207.19a2.81,2.81,0,0,1-1.23-.29c-1.35-.68-1-2.94-.76-4.76a8.51,8.51,0,0,0,.14-1.66,8.9,8.9,0,0,0-.82-.81c-1.49-1.38-4-3.69-3.82-6.61.21-3.72,6.75-7.23,7.41-7.57a3.8,3.8,0,0,1,4.05-.72c2.53,1.12,4.29,5.11,4.7,10.68.6,8.25-1.6,8.87-2,8.91a.51.51,0,0,1-.52-.33c-.19-.52-1.22-.81-2.31-.64-.86.14-1.88.61-1.9,1.48a2.49,2.49,0,0,1-1.32,1.87A3.08,3.08,0,0,1,243,207.19Zm3.56-21.72a3.39,3.39,0,0,0-2.06.83l-.08.06c-1.87,1-6.76,4-6.91,6.76-.14,2.45,2.14,4.56,3.5,5.82a5.06,5.06,0,0,1,1,1.11,4.45,4.45,0,0,1-.05,2.23c-.18,1.26-.49,3.37.22,3.73a1.93,1.93,0,0,0,1.83-.13,1.61,1.61,0,0,0,.84-1c0-1.22,1.11-2.18,2.74-2.44a3.55,3.55,0,0,1,3.11.78c.44-.49,1.33-2.17.93-7.66-.37-5-2-8.9-4.1-9.83A2.42,2.42,0,0,0,246.56,185.47Zm-2.37.44h0Z" style="fill:#263238"></path><path d="M243.79,183.12a37.65,37.65,0,0,1-5.78,4c-3.79,2.19-7.58,2.39-13,.6s-11.76-2.4-14.16-.4-5.58,4-5.58,6.18-3.59-4.39-1-8.38a9,9,0,0,1,6.58-4.18s3-7,7-7.58S244.19,174.94,243.79,183.12Z" style="fill:#263238"></path><path d="M205.12,194.43a1,1,0,0,1-.75-.47c-1-1.24-2.57-5.91-.49-9.12a9.57,9.57,0,0,1,6.67-4.38c.61-1.34,3.44-7,7.24-7.61,3.18-.47,18.77.78,24.43,5.91a5.46,5.46,0,0,1,2.07,4.38.5.5,0,0,1-.16.35,37.35,37.35,0,0,1-5.87,4c-3.92,2.27-7.92,2.46-13.37.64-5.07-1.69-11.39-2.4-13.69-.49-.45.38-.93.76-1.42,1.14-1.95,1.53-4,3.12-4,4.66q0,.73-.48.9A.45.45,0,0,1,205.12,194.43Zm14.42-20.67a12.59,12.59,0,0,0-1.6.08c-3.67.55-6.57,7.22-6.6,7.28a.48.48,0,0,1-.43.3,8.63,8.63,0,0,0-6.19,4c-1.6,2.46-.6,6.08.14,7.5.38-1.77,2.37-3.33,4.31-4.85.47-.37,1-.74,1.39-1.12,2.7-2.24,9.48-1.41,14.64.31s8.87,1.58,12.56-.55a40.74,40.74,0,0,0,5.54-3.79,4.63,4.63,0,0,0-1.75-3.39C236.86,175.25,224.51,173.76,219.54,173.76Zm24.25,9.36h0Z" style="fill:#263238"></path><path d="M219.06,219.52H219l-5.58-1a.5.5,0,0,1-.41-.57l2.18-13.28-.78-4.71a.49.49,0,0,1,.41-.57.5.5,0,0,1,.58.41l.79,4.79a.43.43,0,0,1,0,.16l-2.11,12.88,5.1.91a.49.49,0,0,1,.4.58A.49.49,0,0,1,219.06,219.52Z" style="fill:#263238"></path><path d="M219.52,223.7a12.65,12.65,0,0,1-5.49-1.25.5.5,0,0,1-.19-.68.5.5,0,0,1,.68-.2,10.86,10.86,0,0,0,11-.77.49.49,0,0,1,.69.13.49.49,0,0,1-.12.69A11.48,11.48,0,0,1,219.52,223.7Z" style="fill:#263238"></path><path d="M222.75,238.07a11.42,11.42,0,0,1-4.28-.84c-2.49-1-5.27-4.59-5.39-4.74a.5.5,0,0,1,.09-.7.5.5,0,0,1,.7.08s2.74,3.5,5,4.44a9.22,9.22,0,0,0,6.2.4c1-.45,3.37-3.35,4.18-4.43a.5.5,0,0,1,.8.6c-.31.42-3.11,4.11-4.59,4.75A7.32,7.32,0,0,1,222.75,238.07Z" style="fill:#263238"></path><path d="M230.23,200.37a.45.45,0,0,1-.27-.08c-4.14-2.63-9.12-1.34-9.17-1.33a.52.52,0,0,1-.62-.35.51.51,0,0,1,.36-.62,13.55,13.55,0,0,1,10,1.46.5.5,0,0,1,.15.69A.49.49,0,0,1,230.23,200.37Z" style="fill:#263238"></path><path d="M206.7,199a.5.5,0,0,1-.19-1c4.66-1.9,6.47.05,6.54.13a.5.5,0,1,1-.74.67s-1.51-1.47-5.42.13A.72.72,0,0,1,206.7,199Z" style="fill:#263238"></path><path d="M227,207c0,1.27-.49,2.3-1.1,2.3s-1.1-1-1.1-2.3.5-2.29,1.1-2.29S227,205.69,227,207Z" style="fill:#263238"></path><path d="M211.78,207c0,1.27-.49,2.3-1.1,2.3s-1.09-1-1.09-2.3.49-2.29,1.09-2.29S211.78,205.69,211.78,207Z" style="fill:#263238"></path><path d="M229,213.93h-.11a10.92,10.92,0,0,1-5.67-3.57.5.5,0,1,1,.79-.61,10.09,10.09,0,0,0,5.11,3.21.5.5,0,0,1-.12,1Z" style="fill:#263238"></path><path d="M208.09,212.54a.51.51,0,0,1-.48-.36.5.5,0,0,1,.34-.62,30.58,30.58,0,0,0,5.45-2.93.5.5,0,0,1,.69.14.49.49,0,0,1-.14.69,30.72,30.72,0,0,1-5.71,3.06Z" style="fill:#263238"></path><path d="M235,290.22s-19.35,2.39-34.51,8-27.65,15.75-28.28,17c-.9,1.8-4.8,8.39-5.4,9.89s3.9,1.5,6,1.5,6.89-4.5,7.79-5.4-2.4,4.2.6,4.2,3.3-4.2,4.5-5.1,2.07-1.94,3.9-5.09,5-2.07,3.43-5.11a3.79,3.79,0,0,0-2.11-1.51c21.84-.26,60.34-.75,61.63-1,1.79-.4,3.19-4.39,3.19-4.39S246.18,289.22,235,290.22Z" style="fill:#fff"></path><path d="M172.83,327.11c-3.46,0-5.72-.19-6.37-1.15a1.07,1.07,0,0,1-.1-1c.37-.92,1.84-3.52,3.26-6,.92-1.64,1.8-3.18,2.16-3.91.65-1.29,12.94-11.51,28.56-17.26,15-5.54,34.42-8,34.61-8h0c11.34-1,20.8,12.6,21.2,13.18a.51.51,0,0,1,.06.45c-.15.43-1.55,4.26-3.55,4.71-1.24.27-32.78.7-59.85,1a2.59,2.59,0,0,1,.66.8c1.15,2.18,0,2.81-1,3.42a5.67,5.67,0,0,0-2.4,2.17c-1.76,3-2.7,4.24-4,5.24a4.94,4.94,0,0,0-.9,1.58c-.67,1.53-1.6,3.62-3.9,3.62a1.71,1.71,0,0,1-1.5-.67,3,3,0,0,1-.06-2.44C177.84,324.45,174.62,327.11,172.83,327.11Zm62.24-36.4c-.49.07-19.57,2.5-34.38,8-15,5.52-27.39,15.57-28,16.78-.37.75-1.25,2.3-2.18,3.95-1.34,2.37-2.86,5.05-3.2,5.91,0,.07,0,.08,0,.1.32.47,2.19.71,5.55.71,1.63,0,5.79-3.61,7.44-5.25.34-.34.61-.28.78-.17.38.25.24.61,0,1.21s-.88,2.22-.5,2.78c0,.05.16.23.67.23,1.65,0,2.36-1.61,3-3a4.94,4.94,0,0,1,1.21-2c1.09-.81,1.89-1.72,3.77-5a6.72,6.72,0,0,1,2.77-2.54c1.08-.61,1.34-.75.64-2.08a3.29,3.29,0,0,0-1.83-1.27.5.5,0,0,1,.17-1c38.05-.45,60.47-.82,61.52-1s2.19-2.37,2.74-3.82C254,301.54,245.07,289.82,235.07,290.71Z" style="fill:#263238"></path><path d="M170.13,325.36l-.71-.71c.41-.4,1.72-1.42,3.24-2.61s3.4-2.66,3.68-3,1.22-.68,2.87-1.13a17.57,17.57,0,0,0,4.54-1.68c2.11-1.41,4.72-2.83,4.74-2.85l.48.88s-2.59,1.42-4.67,2.8a18.13,18.13,0,0,1-4.83,1.82,10.05,10.05,0,0,0-2.36.8,46.75,46.75,0,0,1-3.83,3.14C171.91,323.9,170.49,325,170.13,325.36Z" style="fill:#263238"></path><path d="M247.18,256.31,235,290.22a21.88,21.88,0,0,1,11.56,6c5.19,5.19,9.78,10.37,9.78,10.37s7.77-18.55,8.77-34.1-6.78-26.13-10.77-27.72" style="fill:#fff"></path><path d="M256.36,307.07a.5.5,0,0,1-.38-.17s-4.64-5.23-9.75-10.35A21.63,21.63,0,0,0,235,290.71a.49.49,0,0,1-.36-.23.47.47,0,0,1,0-.43l12.16-33.91a.5.5,0,1,1,.94.34l-12,33.34a22.52,22.52,0,0,1,11.25,6c4.11,4.11,7.89,8.27,9.25,9.79,1.44-3.6,7.57-19.65,8.44-33.2,1-15.79-7.07-25.88-10.45-27.23a.5.5,0,0,1,.37-.93c4.51,1.81,12.07,12.78,11.08,28.22s-8.73,34.08-8.81,34.27a.53.53,0,0,1-.38.3Z" style="fill:#263238"></path><path d="M297.57,262.74H278.19a4,4,0,0,0-4,4v.79h.1V374.43H180.84V377h93.44v21.86h3.23V267.54h20.06Z" style="fill:#fff"></path><path d="M277.51,399.38h-3.23a.5.5,0,0,1-.5-.5V377.52H180.84a.51.51,0,0,1-.5-.5v-2.59a.5.5,0,0,1,.5-.5h92.94V267.84a.51.51,0,0,1-.1-.3v-.79a4.51,4.51,0,0,1,4.51-4.51h19.38a.5.5,0,0,1,.5.5v4.8a.51.51,0,0,1-.5.5H278V398.88A.5.5,0,0,1,277.51,399.38Zm-2.73-1H277V267.54a.5.5,0,0,1,.5-.5h19.56v-3.8H278.19a3.51,3.51,0,0,0-3.51,3.51v.49a.49.49,0,0,1,.1.3V374.43a.5.5,0,0,1-.5.5H181.34v1.59h92.94a.5.5,0,0,1,.5.5Z" style="fill:#263238"></path><rect x="281.68" y="261.43" width="20.39" height="7.61" style="fill:#263238"></rect><path d="M302.07,269.54h-20.4a.51.51,0,0,1-.5-.5v-7.61a.5.5,0,0,1,.5-.5h20.4a.5.5,0,0,1,.5.5V269A.51.51,0,0,1,302.07,269.54Zm-19.9-1h19.4v-6.61h-19.4Z" style="fill:#263238"></path><rect x="69.85" y="438.27" width="34.1" height="4.32" transform="translate(132 -6.22) rotate(16.93)" style="fill:#263238"></rect><path d="M102.58,448l-.14,0L69.81,438a.5.5,0,0,1-.33-.62l1.25-4.13a.51.51,0,0,1,.63-.34L104,442.85a.5.5,0,0,1,.34.63l-1.26,4.13a.49.49,0,0,1-.24.29A.53.53,0,0,1,102.58,448Zm-32-10.76,31.67,9.64,1-3.18L71.55,434Z" style="fill:#263238"></path><path d="M132.34,327.51s-12-6.6-21.59-1.2c-5.14,2.9-6,25.79-6.59,36s-3.9,57.88-3.9,57.88a12.85,12.85,0,0,0-3,.9c-1.2.6-2.4,4.79-2.4,4.79s-3.9.9-11.09.3-10.5,1.8-7.2,6.3.3,3.6,13.49,7.8a165.35,165.35,0,0,0,20.39,5.4s3.9,2.39,5.7.6,1.5-4.8,1.2-8.1,1.2-11.4,1.2-12.3,4.5-6.89,5.1-17.69.9-12.29,1.2-14.69S130,359,130,359s38.13,5.49,44.67,6,9.6-.6,9.6-.6Z" style="fill:#92E3A9"></path><path d="M114.34,447.42a9.15,9.15,0,0,1-4.06-1.29,171.21,171.21,0,0,1-20.37-5.4c-10.8-3.43-10.91-3.49-12.43-6-.31-.52-.71-1.17-1.31-2-1.75-2.38-1.52-3.95-1-4.85,1-1.83,4.1-2.63,8.66-2.24a42.35,42.35,0,0,0,10.66-.24c.34-1.13,1.37-4.21,2.57-4.81a11.65,11.65,0,0,1,2.75-.87c.31-4.56,3.3-47.89,3.87-57.49l.14-2.58c.84-15,2.11-31.22,6.71-33.8,9.73-5.48,21.58.92,22.08,1.19l0,0L184.51,364a.51.51,0,0,1,.21.47.49.49,0,0,1-.33.4c-.13.05-3.22,1.13-9.8.63-6.08-.46-39.73-5.28-44.22-5.93-.61,4.06-4.75,31.78-5,34l-.1.8c-.26,2-.56,4.31-1.09,13.86a39.4,39.4,0,0,1-4.52,16.42,10,10,0,0,0-.58,1.26c0,.27-.1,1-.3,2.37-.42,2.84-1.11,7.58-.9,9.86v.14c.3,3.3.59,6.42-1.35,8.36A3,3,0,0,1,114.34,447.42ZM81.68,426.57c-3,0-5,.64-5.65,1.83s.15,2.69.94,3.77c.63.86,1,1.52,1.37,2.06,1.31,2.16,1.33,2.2,11.88,5.55a164.83,164.83,0,0,0,20.32,5.38.67.67,0,0,1,.18.07c1,.61,3.84,1.92,5.08.67,1.61-1.61,1.36-4.37,1.07-7.56l0-.14c-.21-2.39.49-7.21.91-10.09.15-1.09.29-2,.29-2.24a5,5,0,0,1,.69-1.7,38.48,38.48,0,0,0,4.41-16c.53-9.59.83-11.9,1.1-13.94l.1-.79c.3-2.38,5.05-34.18,5.1-34.5a.51.51,0,0,1,.57-.42c.38.06,38.19,5.5,44.64,6a30.6,30.6,0,0,0,8.39-.32l-51-36.23c-.6-.32-12-6.28-21.08-1.19-4.51,2.53-5.61,22.34-6.2,33l-.14,2.58c-.6,10.08-3.87,57.41-3.9,57.88a.51.51,0,0,1-.42.46,12.64,12.64,0,0,0-2.86.85c-.69.35-1.66,2.84-2.14,4.49a.49.49,0,0,1-.37.35c-.16,0-4,.91-11.24.31C83,426.6,82.32,426.57,81.68,426.57Z" style="fill:#263238"></path><path d="M122.17,396.85c-3.58-9.54-5.45-24.07-6.4-34.57l1-.09c.77,8.55,2.61,24.37,6.34,34.31Z" style="fill:#263238"></path><path d="M115.42,358c-.2-2.69-.27-4.32-.27-4.32l1-.05s.08,1.62.28,4.29Z" style="fill:#263238"></path><path d="M83.77,426.16c-7.2-.59-10.5,1.8-7.2,6.3s.3,3.6,13.49,7.8a165.35,165.35,0,0,0,20.39,5.4s3.9,2.39,5.7.6c1.65-1.65,1.54-4.31,1.27-7.28a27.76,27.76,0,0,1-9.33-3.79c-4.41-3.16-13.23-9.33-13.23-9.33S91,426.76,83.77,426.16Z" style="fill:#fff"></path><path d="M114.34,447.42a9.15,9.15,0,0,1-4.06-1.29,171.21,171.21,0,0,1-20.37-5.4c-10.8-3.43-10.91-3.49-12.43-6-.31-.52-.71-1.17-1.31-2-1.75-2.38-1.52-3.95-1-4.85,1-1.83,4.1-2.63,8.66-2.24a40,40,0,0,0,10.94-.29.52.52,0,0,1,.4.08c.09.06,8.87,6.2,13.23,9.32a27.5,27.5,0,0,0,9.16,3.72.49.49,0,0,1,.38.44c.28,3.14.36,5.89-1.41,7.67A3,3,0,0,1,114.34,447.42ZM81.68,426.57c-3,0-5,.64-5.65,1.83s.15,2.69.94,3.77c.63.86,1,1.52,1.37,2.06,1.31,2.16,1.33,2.2,11.88,5.55a164.83,164.83,0,0,0,20.32,5.38.67.67,0,0,1,.18.07c1,.61,3.84,1.92,5.08.67,1.41-1.41,1.39-3.77,1.16-6.51a27.29,27.29,0,0,1-9.16-3.8c-4-2.86-11.78-8.3-13-9.19a42.13,42.13,0,0,1-11,.26C83,426.6,82.32,426.57,81.68,426.57Z" style="fill:#263238"></path><path d="M249.18,341.87s-44.57-9.86-78.75-14.66-41.08-3.6-42.58,1.8-5.1,88.16-5.1,88.16-6.9.3-7.2,2.1-2.1,9-2.1,9-11.39,2.1-17.39,1.2-8.39-2.1-8.09,1.8,5.39,6.6,17.09,12,24.93,10.81,27.61,9.15.4-10.57,2-10.76,4.28-9.19,5.78-11.89,1.5-8.09,1.5-9,3.6-24,6-30.89,8.39-34.48,8.39-34.48,18.35,6.09,21.59,8.09l3.25,2s47.13,3.7,57.33-4.4A28.23,28.23,0,0,0,249.18,341.87Z" style="fill:#92E3A9"></path><path d="M131.24,453.19c-3.89,0-12.74-3.18-26.39-9.48-12.1-5.59-17.07-8.27-17.38-12.41-.11-1.36.1-2.19.66-2.7.94-.85,2.58-.56,5.3-.08.8.14,1.7.3,2.71.45,5.29.79,15-.82,16.91-1.14.35-1.41,1.75-7.1,2-8.64.31-1.89,5.13-2.37,7.21-2.5.32-7.28,3.64-82.57,5.09-87.81,1.55-5.58,7.89-7.11,43.14-2.16,33.81,4.74,78.34,14.57,78.78,14.66a.51.51,0,0,1,.4.51,29.06,29.06,0,0,1-10.87,19.6c-10.24,8.12-55.75,4.65-57.68,4.5a.41.41,0,0,1-.22-.07l-3.25-2c-2.85-1.76-17.93-6.86-21-7.87-.87,4-6.07,27.6-8.29,34-2.44,7-5.95,29.92-6,30.72,0,2.4-.2,6.79-1.56,9.24a44.5,44.5,0,0,0-1.9,4.46c-2,5.11-3.07,7.53-4.26,7.67-.24.26-.19,2.13-.17,3.36.07,2.93.14,6.25-1.62,7.34A3.3,3.3,0,0,1,131.24,453.19ZM89.91,429.06a1.66,1.66,0,0,0-1.11.28c-.3.27-.41.89-.34,1.88.28,3.59,5.34,6.29,16.81,11.58,21.71,10,26.21,9.76,27.13,9.19,1.28-.79,1.21-4.07,1.15-6.46-.05-2.56-.09-4.24,1-4.38.76-.18,2.51-4.65,3.45-7a48.93,48.93,0,0,1,1.95-4.58c1.3-2.33,1.44-6.9,1.44-8.75,0-1.25,3.66-24.26,6-31s8.32-34.15,8.38-34.43a.49.49,0,0,1,.25-.33.51.51,0,0,1,.4,0c.75.25,18.44,6.14,21.7,8.15l3.14,1.93c2.64.2,47.18,3.39,56.85-4.3a28.07,28.07,0,0,0,10.46-18.43c-4.66-1-46.28-10.07-78.28-14.56-34.29-4.82-40.68-3.45-42,1.43-1.47,5.28-5.05,87.22-5.08,88.05a.5.5,0,0,1-.48.48c-3.13.14-6.59.84-6.72,1.68-.3,1.8-2,8.74-2.11,9a.5.5,0,0,1-.4.38c-.46.08-11.54,2.1-17.55,1.2-1-.15-1.93-.31-2.74-.46A22.76,22.76,0,0,0,89.91,429.06Z" style="fill:#263238"></path><path d="M155.84,355.47c-.38-2.48-1.94-5.41-4.52-8.47l.76-.64c2.74,3.24,4.33,6.26,4.75,9Z" style="fill:#263238"></path><path d="M149.14,344.62c-1.33-1.33-2.33-2.16-2.34-2.17l.64-.77s1,.87,2.41,2.24Z" style="fill:#263238"></path><path d="M154.44,346.78c-2.07-7-5.19-9.68-5.22-9.71l.64-.77c.14.12,3.37,2.87,5.54,10.2Z" style="fill:#263238"></path><path d="M96.06,429.46c-6-.9-8.39-2.1-8.09,1.8s5.39,6.6,17.09,12,24.93,10.81,27.61,9.15.4-10.57,2-10.76a16.72,16.72,0,0,1-12.59-3.37,32.69,32.69,0,0,1-8.62-10S102.06,430.36,96.06,429.46Z" style="fill:#fff"></path><path d="M131.24,453.19c-3.89,0-12.74-3.18-26.39-9.48-12.1-5.59-17.07-8.27-17.38-12.41-.11-1.36.1-2.19.66-2.7.94-.85,2.58-.56,5.3-.08.8.14,1.7.3,2.71.45h0c5.84.88,17.11-1.18,17.22-1.2a.5.5,0,0,1,.54.27,32.71,32.71,0,0,0,8.48,9.84,16.38,16.38,0,0,0,12.12,3.29l.1,0a.49.49,0,0,1,.55.42.5.5,0,0,1-.39.57h0a12,12,0,0,0-.17,3.35c.07,2.93.14,6.25-1.62,7.34A3.3,3.3,0,0,1,131.24,453.19ZM89.91,429.06a1.66,1.66,0,0,0-1.11.28c-.3.27-.41.89-.34,1.88.28,3.59,5.34,6.29,16.81,11.58,21.71,10,26.21,9.76,27.13,9.19,1.28-.79,1.21-4.07,1.15-6.46a16.46,16.46,0,0,1,.11-3.25,17.28,17.28,0,0,1-11.9-3.61,33.77,33.77,0,0,1-8.58-9.85c-2,.36-11.71,2-17.19,1.14-1-.15-1.93-.31-2.74-.46A22.76,22.76,0,0,0,89.91,429.06Z" style="fill:#263238"></path><path d="M181.17,365.49h92.56V329.94s-59.46-4.91-92.26,22.37Z" style="fill:#949494"></path><path d="M273.73,366H181.17a.48.48,0,0,1-.36-.15.51.51,0,0,1-.14-.36l.3-13.18a.53.53,0,0,1,.18-.37c32.58-27.1,92-22.54,92.63-22.49a.5.5,0,0,1,.45.5v35.55A.5.5,0,0,1,273.73,366Zm-92.05-1h91.55V330.4c-5.59-.37-60.48-3.27-91.26,22.15Z" style="fill:#263238"></path><path d="M265.42,340.28c-29.52,0-53.45,26.84-53.45,60s23.93,60,53.45,60,53.45-26.85,53.45-60S294.94,340.28,265.42,340.28Zm0,113.54c-26.38,0-47.76-24-47.76-53.58s21.38-53.58,47.76-53.58,47.76,24,47.76,53.58S291.8,453.82,265.42,453.82Z" style="fill:#263238"></path><path d="M265.42,460.71c-29.75,0-54-27.13-54-60.47s24.2-60.46,54-60.46,53.95,27.12,53.95,60.46S295.17,460.71,265.42,460.71Zm0-119.93c-29.19,0-53,26.67-53,59.46s23.76,59.47,53,59.47,52.95-26.68,52.95-59.47S294.62,340.78,265.42,340.78Zm0,113.54c-26.61,0-48.26-24.26-48.26-54.08s21.65-54.08,48.26-54.08,48.26,24.26,48.26,54.08S292,454.32,265.42,454.32Zm0-107.16c-26.06,0-47.26,23.81-47.26,53.08s21.2,53.08,47.26,53.08,47.26-23.81,47.26-53.08S291.48,347.16,265.42,347.16Z" style="fill:#263238"></path><path d="M312.39,423.34h-5.83a51.53,51.53,0,0,0,5.39-23.1c0-26.05-18.83-47.17-42.05-47.17a39.16,39.16,0,0,0-26.4,10.47H226.68v2.09h14.67a49.79,49.79,0,0,0-13.5,34.61c0,15.68,6.82,29.56,17.31,38.13H229.24v2.09h18.23v-.33a38.54,38.54,0,0,0,22.43,7.28c15,0,28.09-8.77,35.54-22h6.95ZM309,400.24a46.92,46.92,0,0,1-9.53,28.69l-16.37-24.56a11.68,11.68,0,0,0,.82-4.31,10.81,10.81,0,0,0-4.18-8.74l4.88-31.73C298.93,366.12,309,381.85,309,400.24ZM269.9,356.36a35.14,35.14,0,0,1,10.23,1.53c-.68,3.07-4.77,21.54-7.13,32-3.93.93-6.93,4.78-7.19,9.47-9.76,3.48-29.45,9.72-33.94,11.14a49.41,49.41,0,0,1-1.08-10.27C230.79,376,248.3,356.36,269.9,356.36Zm-36.32,60.17,35.06-8.92a8.47,8.47,0,0,0,6.21,2.82,7.94,7.94,0,0,0,3.07-.62l17.69,23.49a36.64,36.64,0,0,1-25.71,10.82C253.43,444.12,239.35,432.7,233.58,416.53Z" style="fill:#263238"></path><path d="M118.28,452.07,114.85,450,157,379.48a9.22,9.22,0,0,1,7.87-4.46h16v4h-16a5.18,5.18,0,0,0-4.43,2.51Z" style="fill:#fff"></path><path d="M118.28,452.57a.43.43,0,0,1-.25-.07l-3.44-2.05a.49.49,0,0,1-.17-.68l42.12-70.54a9.69,9.69,0,0,1,8.29-4.71h16a.5.5,0,0,1,.5.5v4a.5.5,0,0,1-.5.5h-16a4.68,4.68,0,0,0-4,2.27l-42.12,70.54a.52.52,0,0,1-.31.23Zm-2.75-2.72,2.58,1.54L160,381.28a5.68,5.68,0,0,1,4.86-2.76h15.51v-3H164.83a8.7,8.7,0,0,0-7.44,4.22Z" style="fill:#263238"></path><path d="M329.52,156.07S308.7,188.48,307.2,194.7s-2.79,29.19-1.29,37.35-5.58,68.25-5.58,68.25,21,1.29,46.14.43,32.2-2.15,32.2-2.15,3.22-10.73-2.36-33.27S363.64,234,362.14,220.24s7.3-25.33,1.29-49.15-15-23.18-15-23.18S337,148.55,329.52,156.07Z" style="fill:#92E3A9"></path><path d="M328.76,301.52c-16.41,0-28.3-.71-28.46-.72a.54.54,0,0,1-.36-.18.57.57,0,0,1-.11-.38c.07-.6,7.06-60.11,5.59-68.1-1.52-8.22-.25-31.18,1.29-37.56s21.54-37.46,22.39-38.78l.06-.09c7.56-7.56,18.74-8.27,19.22-8.3s9.49-.39,15.53,23.56c3.73,14.77,1.82,24.8.13,33.65-1.06,5.56-2,10.36-1.4,15.57.77,7.08,3,12.76,5.86,19.95a182.16,182.16,0,0,1,8.29,25.05c5.55,22.41,2.49,33.09,2.36,33.53a.5.5,0,0,1-.39.35c-.07,0-7.41,1.31-32.27,2.16C340.26,301.44,334.26,301.52,328.76,301.52Zm-27.87-1.69c3.41.19,22.95,1.17,45.57.4,22-.75,30.18-1.85,31.81-2.09.44-1.88,2.52-12.63-2.45-32.71a180.69,180.69,0,0,0-8.25-24.92c-2.87-7.26-5.14-13-5.93-20.22-.58-5.35.39-10.46,1.42-15.86,1.67-8.75,3.56-18.66-.11-33.22-5.8-23-14.44-22.79-14.51-22.8s-11.25.72-18.53,8c-.89,1.39-20.79,32.47-22.23,38.44C306.2,201,304.94,224,306.4,232S301.63,293.5,300.89,299.83Z" style="fill:#263238"></path><path d="M305.05,105.77s-3.42,7.73-2.16,12.73,3.24,9.19,2.72,11.93-4.58,6.44-2.71,8A6.77,6.77,0,0,0,307,140s7,10.37,8.44,12,10.46-2.4,10.46-2.4L330,165.08l18.46-17.17L342.5,132.8s7-7.6,2.94-19.48-16.76-15.13-23.74-15S308.18,102.92,305.05,105.77Z" style="fill:#fff"></path><path d="M330,165.58l-.14,0a.51.51,0,0,1-.35-.35l-3.94-14.86c-2.65,1.17-9,3.73-10.5,2s-7.31-10.37-8.34-11.89a7.18,7.18,0,0,1-4.1-1.67c-1.47-1.24-.24-3.26.95-5.21a11.66,11.66,0,0,0,1.59-3.28c.33-1.74-.46-4.25-1.38-7.15-.45-1.45-.92-3-1.33-4.57-1.3-5.1,2-12.73,2.18-13.05a.52.52,0,0,1,.12-.17c1.36-1.23,8.54-7.39,17-7.56,6.55-.15,20,2.89,24.23,15.32,3.67,10.84-1.7,18.31-2.84,19.73l5.79,14.84a.49.49,0,0,1-.12.55l-18.46,17.17A.55.55,0,0,1,330,165.58Zm-4.09-16.42a.47.47,0,0,1,.48.37l3.88,14.62,17.6-16.37L342,133a.51.51,0,0,1,.09-.52c.07-.08,6.71-7.54,2.84-19-4-11.88-17-14.78-23.26-14.64-7.93.16-14.75,5.89-16.24,7.23-.38.89-3.23,7.83-2.09,12.31.4,1.59.87,3.07,1.32,4.51.95,3,1.78,5.65,1.4,7.63a12,12,0,0,1-1.72,3.62c-1.19,2-1.91,3.29-1.16,3.93a6.12,6.12,0,0,0,3.73,1.45h0a.49.49,0,0,1,.41.22c.07.1,7,10.37,8.41,12,.74.86,5.7-.65,9.87-2.54A.52.52,0,0,1,325.86,149.16Z" style="fill:#263238"></path><path d="M297.94,106.38a167.93,167.93,0,0,0,26.43,13.11s8.61,7.62,9.56,5.89.39-8.63,4.49-6.86a7.32,7.32,0,0,1,3.87,9.06c-.94,2.83-1.64,4.73-1.64,4.73S343,136,344,135.77s5.86-8.68,5.42-20.21-7.47-21-17.84-22.36-23,3.28-28.68,7.54S296.75,104.87,297.94,106.38Z" style="fill:#263238"></path><path d="M343.93,136.28c-1.2,0-2.82-2.29-3.71-3.71a.47.47,0,0,1,0-.43s.7-1.93,1.63-4.72c.78-2.33.49-6.67-3.59-8.44a1.79,1.79,0,0,0-1.61-.1c-1,.54-1.33,2.57-1.6,4.21a9,9,0,0,1-.64,2.53,1,1,0,0,1-.71.5c-2.05.36-8.16-5-9.56-6.2a170.2,170.2,0,0,1-26.43-13.12l-.12-.11a2,2,0,0,1-.63-1.47c.1-.78.91-1.37,3.31-3.13.66-.49,1.45-1.06,2.37-1.75,6.24-4.67,19.12-8.92,29-7.64,10.3,1.33,17.81,10.72,18.27,22.84.43,11.32-4.23,20.39-5.81,20.72Zm-2.73-4c1,1.61,2.3,3,2.71,3h0c.91-.47,5.44-8.51,5-19.7-.44-11.62-7.6-20.62-17.4-21.89-10.69-1.38-23.22,3.63-28.32,7.45l-2.38,1.76c-1.78,1.31-2.86,2.1-2.91,2.46,0,.12.17.39.37.64a169,169,0,0,0,26.27,13,.46.46,0,0,1,.15.09c4.07,3.61,8.11,6.36,8.81,6a9.2,9.2,0,0,0,.51-2.19c.32-2,.69-4.16,2.11-4.93a2.74,2.74,0,0,1,2.49.06,7.76,7.76,0,0,1,4.14,9.68C342,130,341.42,131.65,341.2,132.25Z" style="fill:#263238"></path><path d="M349.36,122.59s-.52-5.59,6.32-3.3,10.28,10.35,9.06,15-10.78,9.27-14.51,6.11a10.8,10.8,0,0,1-4-8.6C346.44,130.66,349.36,122.59,349.36,122.59Z" style="fill:#263238"></path><path d="M353.57,141.93a5.54,5.54,0,0,1-3.66-1.16c-3.75-3.18-4.43-7.55-4.16-9.06.19-1.11,2.67-8,3.1-9.19a4.36,4.36,0,0,1,1.4-3.5c1.23-1,3.11-1,5.59-.2,6.87,2.3,10.75,10.41,9.39,15.59-.82,3.11-4.78,5.85-8.28,7A11.34,11.34,0,0,1,353.57,141.93Zm-.78-22.69a3.06,3.06,0,0,0-1.92.56,3.4,3.4,0,0,0-1,2.74.78.78,0,0,1,0,.22c-.81,2.23-2.94,8.22-3.1,9.12-.2,1.14.34,5.17,3.82,8.13,1.27,1.07,3.49,1.22,6.1.39,3.71-1.16,7-3.85,7.61-6.25,1.11-4.23-2.06-12.14-8.73-14.38A8.68,8.68,0,0,0,352.79,119.24Z" style="fill:#263238"></path><path d="M311,142.08a.52.52,0,0,1-.47-.33.5.5,0,0,1,.3-.64s4.12-1.54,5.87-5a.5.5,0,0,1,.67-.22.51.51,0,0,1,.22.67c-1.93,3.81-6.24,5.41-6.42,5.48A.47.47,0,0,1,311,142.08Z" style="fill:#263238"></path><polygon points="325.86 149.66 332.35 146.1 327.37 154.13 325.86 149.66" style="fill:#263238"></polygon><path d="M327.37,154.63h-.06a.48.48,0,0,1-.41-.34l-1.52-4.47a.5.5,0,0,1,.24-.6l6.49-3.55a.48.48,0,0,1,.6.09.5.5,0,0,1,.07.61l-5,8A.51.51,0,0,1,327.37,154.63Zm-.9-4.74,1,3.08,3.42-5.52Z" style="fill:#263238"></path><path d="M312.53,127.89c.29,1.39,0,2.62-.63,2.76s-1.39-.89-1.68-2.28,0-2.63.63-2.76S312.24,126.49,312.53,127.89Z" style="fill:#263238"></path><path d="M307,124.06a.59.59,0,0,1-.22,0,.5.5,0,0,1-.23-.67,4.19,4.19,0,0,1,2.27-2,4.59,4.59,0,0,1,3.61.44.49.49,0,0,1,.22.67.49.49,0,0,1-.67.22,3.72,3.72,0,0,0-2.84-.39,3.18,3.18,0,0,0-1.69,1.47A.51.51,0,0,1,307,124.06Z" style="fill:#263238"></path><rect x="306.3" y="213.16" width="11.41" height="22.9" style="fill:#fff"></rect><path d="M317.71,236.55H306.3a.5.5,0,0,1-.5-.5V213.16a.5.5,0,0,1,.5-.5h11.41a.5.5,0,0,1,.5.5v22.89A.5.5,0,0,1,317.71,236.55Zm-10.91-1h10.41V213.66H306.8Z" style="fill:#263238"></path><polygon points="348.4 147.91 309.34 213.37 350.98 148.98 348.4 147.91" style="fill:#263238"></polygon><path d="M309.34,213.87a.48.48,0,0,1-.26-.07.5.5,0,0,1-.17-.68L348,147.65a.49.49,0,0,1,.62-.2l2.57,1.07a.52.52,0,0,1,.29.31.51.51,0,0,1-.06.42l-41.64,64.39A.48.48,0,0,1,309.34,213.87Zm39.27-65.33L324,189.79l26.24-40.58Z" style="fill:#263238"></path><polygon points="327.8 156.5 309.34 213.37 329.07 162.55 327.8 156.5" style="fill:#263238"></polygon><path d="M309.34,213.87l-.17,0a.49.49,0,0,1-.3-.62l18.46-56.88a.47.47,0,0,1,.5-.34.5.5,0,0,1,.46.39l1.27,6.05a.48.48,0,0,1,0,.29l-19.72,50.82A.51.51,0,0,1,309.34,213.87Zm18.36-55.43-12.41,38.22,13.26-34.16Z" style="fill:#263238"></path><path d="M290.24,258.51s-7.3,12.88-6.65,13.52,4.07.65,4.07.65l3-1.07s3.86,1.5,6.65,1.07,7.09-6.23,7.73-7.94,9.29-4.7,18-7.78c12.9-4.57,35.19-21.15,36.27-21.58s4.29-4.3,4.29-4.3l1.75-19.88-20.17-2.79-1.76,14.52S332.09,237.05,320.93,245a214.93,214.93,0,0,1-18.67,12C301.62,257.44,293.46,257.65,290.24,258.51Z" style="fill:#fff"></path><path d="M296.23,273.26a18.16,18.16,0,0,1-5.56-1.12l-2.84,1a.47.47,0,0,1-.17,0c-.85,0-3.69-.06-4.43-.79-.29-.3-.91-.92,6.57-14.12a.49.49,0,0,1,.31-.24,57.28,57.28,0,0,1,7.9-1,32.22,32.22,0,0,0,4-.45c.08-.06.37-.22.82-.48,2.11-1.22,8.51-4.9,17.81-11.52,10.46-7.44,21.21-20.52,22.29-21.85l1.74-14.38a.45.45,0,0,1,.19-.33.43.43,0,0,1,.37-.1l20.18,2.79a.5.5,0,0,1,.43.54l-1.75,19.88a.45.45,0,0,1-.12.27c-.55.67-3.35,4-4.49,4.44-.21.1-1.57,1-3.14,2.12-6.85,4.74-22.9,15.85-33.14,19.47l-1.3.46c-7.06,2.5-15.85,5.61-16.38,7-.66,1.75-5.06,7.79-8.12,8.26A7.49,7.49,0,0,1,296.23,273.26Zm-5.56-2.15.18,0s3.78,1.45,6.4,1,6.72-6,7.33-7.62,6.88-4,17-7.61l1.31-.46c10.11-3.58,26.08-14.63,32.9-19.35,2.28-1.57,3.08-2.12,3.34-2.23.68-.27,2.77-2.56,4-4l1.7-19.25L345.6,209l-1.69,14a.47.47,0,0,1-.11.25c-.11.14-11.49,14.27-22.58,22.16-9.34,6.64-15.78,10.35-17.89,11.56-.42.25-.69.4-.79.47-.37.24-1.39.34-4.45.6a61.25,61.25,0,0,0-7.52.91c-3.11,5.5-6.27,11.58-6.51,12.82a11.77,11.77,0,0,0,3.52.42l2.92-1.05Zm-6.62.78h0Z" style="fill:#263238"></path><path d="M349.05,157a36.46,36.46,0,0,0-4.94,14.5c-.64,7.74-4.08,46.16-4.08,46.16l27.48,3.14s3.86-28.76.43-43.74-10.31-25.37-15.24-24.41" style="fill:#92E3A9"></path><path d="M367.51,221.26h-.06L340,218.12a.49.49,0,0,1-.44-.54c0-.39,3.44-38.52,4.07-46.16a36.43,36.43,0,0,1,5-14.72.5.5,0,1,1,.84.53,36.28,36.28,0,0,0-4.86,14.27c-.6,7.18-3.63,41.19-4,45.68l26.49,3c.49-3.84,3.51-29.42.38-43.08-3.53-15.4-10.44-24.85-14.66-24a.49.49,0,0,1-.58-.39.5.5,0,0,1,.39-.59c5.44-1.07,12.39,9.82,15.82,24.79s-.38,43.63-.42,43.92A.49.49,0,0,1,367.51,221.26Z" style="fill:#263238"></path><rect x="95.1" y="446.91" width="34.1" height="4.32" transform="translate(135.61 -13.2) rotate(16.93)" style="fill:#263238"></rect><path d="M127.84,456.59a.39.39,0,0,1-.15,0l-32.63-9.93a.49.49,0,0,1-.29-.24.5.5,0,0,1,0-.38L96,441.89a.5.5,0,0,1,.62-.33l32.63,9.93a.5.5,0,0,1,.33.62l-1.25,4.13a.53.53,0,0,1-.25.3A.46.46,0,0,1,127.84,456.59Zm-32-10.76,31.67,9.64,1-3.17L96.8,442.66Z" style="fill:#263238"></path><rect x="255.62" y="309.07" width="18.66" height="3" style="fill:#fff"></rect><path d="M274.28,312.57H255.62a.5.5,0,0,1-.5-.5v-3a.5.5,0,0,1,.5-.5h18.66a.5.5,0,0,1,.5.5v3A.51.51,0,0,1,274.28,312.57Zm-18.16-1h17.66v-2H256.12Z" style="fill:#263238"></path><path d="M255.62,314.07H191.45a3.5,3.5,0,0,1,0-7h64.17a3.5,3.5,0,1,1,0,7Z" style="fill:#263238"></path><path d="M181.76,413.79h-3V313.92a4.85,4.85,0,0,1,4.85-4.85h7.84v3h-7.84a1.85,1.85,0,0,0-1.85,1.85Z" style="fill:#fff"></path><path d="M181.76,414.29h-3a.5.5,0,0,1-.5-.5V313.92a5.36,5.36,0,0,1,5.35-5.35h7.84a.5.5,0,0,1,.5.5v3a.5.5,0,0,1-.5.5h-7.84a1.34,1.34,0,0,0-1.35,1.35v99.87A.5.5,0,0,1,181.76,414.29Zm-2.5-1h2V313.92a2.35,2.35,0,0,1,2.35-2.35H191v-2h-7.34a4.35,4.35,0,0,0-4.35,4.35Z" style="fill:#263238"></path><path d="M177.75,412.87v21.7s-1.55,5.09-1.37,7.08c.31,3.56,7.76-7.08,7.76-7.08v-21.7Z" style="fill:#263238"></path><path d="M176.86,442.87a.76.76,0,0,1-.21,0c-.31-.08-.7-.35-.77-1.15-.18-1.95,1.17-6.54,1.37-7.19V412.88a.5.5,0,0,1,.5-.5h6.39a.5.5,0,0,1,.5.5v21.69a.52.52,0,0,1-.09.29C182.83,437.32,178.73,442.87,176.86,442.87Zm1.39-29.49v21.19a.59.59,0,0,1,0,.14c0,.05-1.52,5-1.36,6.89a.66.66,0,0,0,.08.3h0c.74,0,3.78-3.38,6.67-7.49v-21Zm-.5,21.19h0Z" style="fill:#263238"></path><path d="M178.52,416.93a21.35,21.35,0,1,0,21.35,21.35A21.34,21.34,0,0,0,178.52,416.93Zm14.64,19.71c-4.17-.76-14.56-3.47-20.15-12a14.71,14.71,0,0,1,20.15,12Zm-25-8.82c1.24,2,4.46,8.06,3.21,14.3-.82,4.11-2.35,5.66-3.59,6.21a14.7,14.7,0,0,1,.38-20.51ZM178.52,453a14.47,14.47,0,0,1-4.13-.6c2.27-3.84,7.48-9.69,17.89-8.9A14.71,14.71,0,0,1,178.52,453Z" style="fill:#263238"></path><path d="M178.52,460.12a21.85,21.85,0,1,1,21.85-21.84A21.87,21.87,0,0,1,178.52,460.12Zm0-42.69a20.85,20.85,0,1,0,20.85,20.85A20.87,20.87,0,0,0,178.52,417.43Zm0,36.08a15.21,15.21,0,0,1-4.27-.62.5.5,0,0,1-.33-.29.52.52,0,0,1,0-.44c2.22-3.77,7.56-10,18.36-9.15a.49.49,0,0,1,.43.67A15.3,15.3,0,0,1,178.52,453.51Zm-3.36-1.41a14.18,14.18,0,0,0,16.4-8.14C182.27,443.51,177.4,448.6,175.16,452.1Zm-7.39-3.27a.46.46,0,0,1-.36-.16,15.2,15.2,0,0,1,.38-21.2.49.49,0,0,1,.78.09c1.41,2.3,4.55,8.33,3.28,14.66-.7,3.52-2,5.73-3.87,6.57A.52.52,0,0,1,167.77,448.83Zm.28-20.19a14.21,14.21,0,0,0-.17,19.07c1-.61,2.27-2.1,3-5.69C172,436.49,169.49,431.15,168.05,428.64Zm25.11,8.5h-.09c-4.26-.78-14.79-3.53-20.48-12.24a.52.52,0,0,1-.06-.42.5.5,0,0,1,.29-.31,15.15,15.15,0,0,1,5.7-1.12h0a15.21,15.21,0,0,1,15.14,13.54.5.5,0,0,1-.16.42A.48.48,0,0,1,193.16,437.14Zm-19.38-12.28c5.26,7.56,14.4,10.26,18.79,11.15a14.21,14.21,0,0,0-18.79-11.15Z" style="fill:#263238"></path></g></svg>